<svg width="38" height="38" viewBox="0 0 38 38" fill="none" xmlns="http://www.w3.org/2000/svg">
<path opacity="0.4" d="M32.4583 16.134H27.8825C24.13 16.134 21.0741 13.0782 21.0741 9.32567V4.74984C21.0741 3.879 20.3616 3.1665 19.4908 3.1665H12.7775C7.90081 3.1665 3.95831 6.33317 3.95831 11.9857V26.014C3.95831 31.6665 7.90081 34.8332 12.7775 34.8332H25.2225C30.0991 34.8332 34.0416 31.6665 34.0416 26.014V17.7173C34.0416 16.8465 33.3291 16.134 32.4583 16.134Z" fill="white"/>
<path d="M25.0167 3.49895C24.3675 2.84979 23.2433 3.29312 23.2433 4.19562V9.72145C23.2433 12.0331 25.2067 13.949 27.5975 13.949C29.1017 13.9648 31.1917 13.9648 32.9808 13.9648C33.8833 13.9648 34.3583 12.904 33.725 12.2706C31.445 9.97479 27.36 5.84229 25.0167 3.49895Z" fill="white"/>
<path d="M19.4433 23.3067C18.9842 22.8475 18.2242 22.8475 17.765 23.3067L16.625 24.4467V17.8125C16.625 17.1633 16.0867 16.625 15.4375 16.625C14.7883 16.625 14.25 17.1633 14.25 17.8125V24.4467L13.11 23.3067C12.6508 22.8475 11.8908 22.8475 11.4317 23.3067C10.9725 23.7658 10.9725 24.5258 11.4317 24.985L14.5983 28.1517C14.6142 28.1675 14.63 28.1675 14.63 28.1833C14.725 28.2783 14.8517 28.3575 14.9783 28.4208C15.1367 28.4683 15.2792 28.5 15.4375 28.5C15.5958 28.5 15.7383 28.4683 15.8808 28.405C16.0233 28.3417 16.15 28.2625 16.2767 28.1517L19.4433 24.985C19.9025 24.5258 19.9025 23.7658 19.4433 23.3067Z" fill="white"/>
</svg>
