<svg width="41" height="40" viewBox="0 0 41 40" fill="none" xmlns="http://www.w3.org/2000/svg">
<path d="M32.7833 8.14995L23.0166 3.79995C21.5833 3.16662 19.4166 3.16662 17.9833 3.79995L8.21663 8.14995C5.74997 9.24995 5.3833 10.75 5.3833 11.55C5.3833 12.3499 5.74997 13.85 8.21663 14.95L17.9833 19.2999C18.7 19.6166 19.6 19.7833 20.5 19.7833C21.4 19.7833 22.3 19.6166 23.0166 19.2999L32.7833 14.95C35.25 13.85 35.6166 12.3499 35.6166 11.55C35.6166 10.75 35.2666 9.24995 32.7833 8.14995Z" fill="white"/>
<path opacity="0.4" d="M20.5 28.4C19.8667 28.4 19.2334 28.2667 18.65 28.0167L7.4167 23.0167C5.70003 22.25 4.3667 20.2 4.3667 18.3167C4.3667 17.6334 4.9167 17.0834 5.60003 17.0834C6.28337 17.0834 6.83337 17.6334 6.83337 18.3167C6.83337 19.2167 7.58337 20.3834 8.4167 20.75L19.65 25.75C20.1834 25.9834 20.8 25.9834 21.3334 25.75L32.5667 20.75C33.4 20.3834 34.15 19.2334 34.15 18.3167C34.15 17.6334 34.7 17.0834 35.3834 17.0834C36.0667 17.0834 36.6167 17.6334 36.6167 18.3167C36.6167 20.1834 35.2834 22.25 33.5667 23.0167L22.3334 28.0167C21.7667 28.2667 21.1334 28.4 20.5 28.4Z" fill="white"/>
<path opacity="0.4" d="M20.5 36.6666C19.8667 36.6666 19.2334 36.5333 18.65 36.2833L7.4167 31.2833C5.5667 30.4666 4.3667 28.6166 4.3667 26.5833C4.3667 25.9 4.9167 25.35 5.60003 25.35C6.28337 25.35 6.83337 25.9 6.83337 26.5833C6.83337 27.6333 7.45003 28.5833 8.4167 29.0166L19.65 34.0166C20.1834 34.25 20.8 34.25 21.3334 34.0166L32.5667 29.0166C33.5167 28.6 34.15 27.6333 34.15 26.5833C34.15 25.9 34.7 25.35 35.3834 25.35C36.0667 25.35 36.6167 25.9 36.6167 26.5833C36.6167 28.6166 35.4167 30.45 33.5667 31.2833L22.3334 36.2833C21.7667 36.5333 21.1334 36.6666 20.5 36.6666Z" fill="white"/>
</svg>
