<svg width="24" height="29" viewBox="0 0 24 29" fill="none" xmlns="http://www.w3.org/2000/svg">
<mask id="path-1-inside-1_4_721" fill="white">
<path d="M0.0564575 0.0275879H23.9436V28.6922H0.0564575V0.0275879Z"/>
</mask>
<g clip-path="url(#paint0_diamond_4_721_clip_path)" data-figma-skip-parse="true" mask="url(#path-1-inside-1_4_721)"><g transform="matrix(0.0238871 0 0 0.0143323 23.9436 14.3599)"><rect x="0" y="0" width="1033.33" height="1055.56" fill="url(#paint0_diamond_4_721)" opacity="1" shape-rendering="crispEdges"/><rect x="0" y="0" width="1033.33" height="1055.56" transform="scale(1 -1)" fill="url(#paint0_diamond_4_721)" opacity="1" shape-rendering="crispEdges"/><rect x="0" y="0" width="1033.33" height="1055.56" transform="scale(-1 1)" fill="url(#paint0_diamond_4_721)" opacity="1" shape-rendering="crispEdges"/><rect x="0" y="0" width="1033.33" height="1055.56" transform="scale(-1)" fill="url(#paint0_diamond_4_721)" opacity="1" shape-rendering="crispEdges"/></g></g><path d="M23.9436 0.0275879H47.8307V-14.3047H23.9436V0.0275879ZM23.9436 28.6922V43.0244H47.8307V28.6922H23.9436ZM0.0564575 0.0275879V14.3599H23.9436V0.0275879V-14.3047H0.0564575V0.0275879ZM23.9436 0.0275879H0.0564575V28.6922H23.9436H47.8307V0.0275879H23.9436ZM23.9436 28.6922V14.3599H0.0564575V28.6922V43.0244H23.9436V28.6922Z" data-figma-gradient-fill="{&#34;type&#34;:&#34;GRADIENT_DIAMOND&#34;,&#34;stops&#34;:[{&#34;color&#34;:{&#34;r&#34;:0.81176471710205078,&#34;g&#34;:0.29803922772407532,&#34;b&#34;:0.50980395078659058,&#34;a&#34;:1.0},&#34;position&#34;:0.99999988079071045},{&#34;color&#34;:{&#34;r&#34;:0.0,&#34;g&#34;:0.0,&#34;b&#34;:0.0,&#34;a&#34;:0.0},&#34;position&#34;:1.0}],&#34;stopsVar&#34;:[{&#34;color&#34;:{&#34;r&#34;:0.81176471710205078,&#34;g&#34;:0.29803922772407532,&#34;b&#34;:0.50980395078659058,&#34;a&#34;:1.0},&#34;position&#34;:0.99999988079071045},{&#34;color&#34;:{&#34;r&#34;:0.0,&#34;g&#34;:0.0,&#34;b&#34;:0.0,&#34;a&#34;:0.0},&#34;position&#34;:1.0}],&#34;transform&#34;:{&#34;m00&#34;:47.774276733398438,&#34;m01&#34;:0.0,&#34;m02&#34;:0.056457519531250,&#34;m10&#34;:0.0,&#34;m11&#34;:28.664566040039062,&#34;m12&#34;:0.0275878906250},&#34;opacity&#34;:1.0,&#34;blendMode&#34;:&#34;NORMAL&#34;,&#34;visible&#34;:true}" mask="url(#path-1-inside-1_4_721)"/>
<defs>
<clipPath id="paint0_diamond_4_721_clip_path"><path d="M23.9436 0.0275879H47.8307V-14.3047H23.9436V0.0275879ZM23.9436 28.6922V43.0244H47.8307V28.6922H23.9436ZM0.0564575 0.0275879V14.3599H23.9436V0.0275879V-14.3047H0.0564575V0.0275879ZM23.9436 0.0275879H0.0564575V28.6922H23.9436H47.8307V0.0275879H23.9436ZM23.9436 28.6922V14.3599H0.0564575V28.6922V43.0244H23.9436V28.6922Z" mask="url(#path-1-inside-1_4_721)"/></clipPath><linearGradient id="paint0_diamond_4_721" x1="0" y1="0" x2="500" y2="500" gradientUnits="userSpaceOnUse">
<stop offset="1" stop-color="#CF4C82"/>
<stop offset="1" stop-opacity="0"/>
</linearGradient>
</defs>
</svg>
