<svg width="406" height="406" viewBox="0 0 406 406" fill="none" xmlns="http://www.w3.org/2000/svg">
<path d="M203.111 0.11499C229.749 0.114989 256.127 5.36181 280.737 15.5559C305.348 25.75 327.71 40.6916 346.546 59.5278C365.382 78.364 380.324 100.726 390.518 125.337C400.712 149.947 405.959 176.325 405.959 202.963C405.959 229.602 400.712 255.979 390.518 280.59C380.324 305.2 365.382 327.562 346.546 346.398C327.71 365.235 305.348 380.176 280.737 390.37C256.127 400.564 229.749 405.811 203.111 405.811L203.111 304.387C216.43 304.387 229.619 301.764 241.924 296.667C254.229 291.57 265.41 284.099 274.828 274.681C284.246 265.263 291.717 254.082 296.814 241.776C301.911 229.471 304.535 216.282 304.535 202.963C304.535 189.644 301.911 176.455 296.814 164.15C291.717 151.844 284.246 140.664 274.828 131.245C265.41 121.827 254.229 114.357 241.924 109.26C229.619 104.162 216.43 101.539 203.111 101.539L203.111 0.11499Z" fill="#FF6384"/>
<path d="M339.917 198.844C338.988 198.844 338.159 198.673 337.431 198.331C336.707 197.988 336.133 197.517 335.707 196.916C335.282 196.315 335.06 195.627 335.043 194.85H337.806C337.836 195.372 338.056 195.796 338.463 196.12C338.871 196.445 339.356 196.607 339.917 196.607C340.365 196.607 340.759 196.508 341.101 196.311C341.448 196.109 341.718 195.831 341.911 195.475C342.108 195.116 342.207 194.704 342.207 194.239C342.207 193.765 342.106 193.348 341.904 192.989C341.707 192.629 341.433 192.348 341.082 192.147C340.731 191.945 340.33 191.842 339.878 191.838C339.483 191.838 339.099 191.919 338.727 192.081C338.358 192.243 338.071 192.465 337.865 192.745L335.332 192.291L335.97 185.187H344.206V187.516H338.319L337.97 190.89H338.049C338.286 190.557 338.643 190.281 339.121 190.061C339.599 189.842 340.134 189.732 340.726 189.732C341.538 189.732 342.261 189.923 342.897 190.305C343.533 190.686 344.035 191.21 344.404 191.877C344.772 192.539 344.954 193.302 344.95 194.166C344.954 195.074 344.744 195.881 344.318 196.587C343.897 197.289 343.307 197.842 342.549 198.245C341.794 198.644 340.917 198.844 339.917 198.844ZM352.219 198.955C351.088 198.951 350.114 198.673 349.298 198.12C348.487 197.567 347.862 196.767 347.423 195.719C346.989 194.671 346.774 193.41 346.779 191.936C346.779 190.467 346.996 189.215 347.43 188.18C347.868 187.145 348.493 186.358 349.305 185.818C350.121 185.274 351.092 185.003 352.219 185.003C353.346 185.003 354.315 185.274 355.127 185.818C355.942 186.362 356.57 187.152 357.008 188.187C357.447 189.217 357.664 190.467 357.659 191.936C357.659 193.414 357.44 194.677 357.002 195.725C356.567 196.774 355.945 197.574 355.133 198.127C354.322 198.679 353.351 198.955 352.219 198.955ZM352.219 196.594C352.991 196.594 353.607 196.206 354.068 195.429C354.528 194.653 354.756 193.489 354.752 191.936C354.752 190.914 354.646 190.064 354.436 189.384C354.23 188.704 353.936 188.193 353.554 187.851C353.177 187.509 352.732 187.338 352.219 187.338C351.452 187.338 350.838 187.722 350.377 188.489C349.917 189.257 349.684 190.406 349.68 191.936C349.68 192.971 349.783 193.835 349.989 194.528C350.199 195.217 350.495 195.734 350.877 196.081C351.259 196.423 351.706 196.594 352.219 196.594ZM367.065 196.133V195.423C367.065 194.883 367.179 194.388 367.407 193.936C367.639 193.48 367.975 193.116 368.414 192.844C368.857 192.568 369.396 192.43 370.032 192.43C370.677 192.43 371.218 192.566 371.657 192.837C372.1 193.109 372.433 193.473 372.657 193.93C372.885 194.381 372.999 194.879 372.999 195.423V196.133C372.999 196.673 372.885 197.17 372.657 197.627C372.429 198.078 372.093 198.44 371.65 198.712C371.207 198.988 370.668 199.126 370.032 199.126C369.387 199.126 368.846 198.988 368.407 198.712C367.968 198.44 367.635 198.078 367.407 197.627C367.179 197.17 367.065 196.673 367.065 196.133ZM368.979 195.423V196.133C368.979 196.445 369.054 196.739 369.203 197.015C369.356 197.291 369.633 197.429 370.032 197.429C370.431 197.429 370.703 197.293 370.848 197.021C370.997 196.749 371.071 196.453 371.071 196.133V195.423C371.071 195.103 371.001 194.804 370.861 194.528C370.72 194.252 370.444 194.114 370.032 194.114C369.637 194.114 369.363 194.252 369.21 194.528C369.056 194.804 368.979 195.103 368.979 195.423ZM360.151 188.423V187.713C360.151 187.169 360.267 186.671 360.5 186.22C360.732 185.763 361.068 185.399 361.506 185.128C361.949 184.856 362.484 184.72 363.111 184.72C363.76 184.72 364.304 184.856 364.743 185.128C365.181 185.399 365.515 185.763 365.743 186.22C365.971 186.671 366.085 187.169 366.085 187.713V188.423C366.085 188.967 365.969 189.465 365.736 189.917C365.508 190.368 365.173 190.73 364.73 191.002C364.291 191.27 363.752 191.403 363.111 191.403C362.471 191.403 361.929 191.267 361.486 190.996C361.048 190.719 360.715 190.357 360.487 189.91C360.263 189.458 360.151 188.963 360.151 188.423ZM362.079 187.713V188.423C362.079 188.743 362.153 189.04 362.302 189.311C362.456 189.583 362.725 189.719 363.111 189.719C363.515 189.719 363.789 189.583 363.934 189.311C364.083 189.04 364.157 188.743 364.157 188.423V187.713C364.157 187.393 364.087 187.094 363.947 186.818C363.806 186.542 363.528 186.404 363.111 186.404C362.721 186.404 362.451 186.544 362.302 186.825C362.153 187.105 362.079 187.401 362.079 187.713ZM361.019 198.659L370.282 185.187H372.005L362.743 198.659H361.019Z" fill="white"/>
<path d="M203.111 405.811C171.099 405.811 139.542 398.235 111.019 383.702C82.497 369.169 57.8189 348.092 39.003 322.194C20.1871 296.296 7.76756 266.313 2.75985 234.696C-2.24786 203.078 0.298434 170.724 10.1905 140.28L106.651 171.621C101.705 186.844 100.431 203.021 102.935 218.829C105.439 234.638 111.649 249.63 121.057 262.579C130.465 275.528 142.804 286.066 157.065 293.333C171.326 300.599 187.105 304.387 203.111 304.387L203.111 405.811Z" fill="#36A2EB"/>
<path d="M10.1905 140.28C23.428 99.5389 49.2234 64.0347 83.8795 38.8555L143.495 120.909C126.167 133.499 113.269 151.251 106.651 171.621L10.1905 140.28Z" fill="#FFCE56"/>
<path d="M83.8795 38.8555C101.1 26.3439 120.183 16.6208 140.427 10.0431L171.769 106.503C161.647 109.792 152.105 114.654 143.495 120.909L83.8795 38.8555Z" fill="#4BC0C0"/>
<path d="M61.9666 291.468C60.9842 291.468 60.1093 291.3 59.3418 290.962C58.5787 290.62 57.9757 290.15 57.5327 289.554C57.0942 288.953 56.8683 288.26 56.8552 287.475H59.7234C59.7409 287.804 59.8484 288.094 60.0457 288.344C60.2475 288.589 60.515 288.78 60.8483 288.916C61.1816 289.052 61.5566 289.12 61.9732 289.12C62.4074 289.12 62.7911 289.043 63.1244 288.89C63.4578 288.736 63.7187 288.523 63.9073 288.252C64.0959 287.98 64.1902 287.666 64.1902 287.311C64.1902 286.951 64.0893 286.633 63.8875 286.357C63.6902 286.076 63.4051 285.857 63.0323 285.699C62.6639 285.541 62.2254 285.462 61.7167 285.462H60.4602V283.37H61.7167C62.1464 283.37 62.5258 283.296 62.8547 283.147C63.188 282.998 63.4468 282.791 63.631 282.528C63.8152 282.261 63.9073 281.949 63.9073 281.594C63.9073 281.256 63.8261 280.96 63.6639 280.706C63.506 280.447 63.2823 280.246 62.9929 280.101C62.7078 279.956 62.3745 279.884 61.9929 279.884C61.607 279.884 61.254 279.954 60.9338 280.094C60.6137 280.23 60.3571 280.425 60.1641 280.68C59.9712 280.934 59.8681 281.232 59.8549 281.574H57.1249C57.138 280.798 57.3595 280.114 57.7893 279.522C58.2191 278.93 58.798 278.467 59.526 278.134C60.2584 277.796 61.0851 277.627 62.0061 277.627C62.9359 277.627 63.7494 277.796 64.4467 278.134C65.144 278.472 65.6857 278.928 66.0716 279.502C66.4619 280.072 66.6549 280.713 66.6505 281.423C66.6549 282.177 66.4203 282.807 65.9466 283.311C65.4773 283.815 64.8655 284.136 64.1112 284.272V284.377C65.1024 284.504 65.8567 284.848 66.3742 285.41C66.8961 285.967 67.1548 286.664 67.1505 287.502C67.1548 288.269 66.9334 288.951 66.486 289.547C66.0431 290.144 65.4313 290.613 64.6506 290.955C63.87 291.297 62.9753 291.468 61.9666 291.468ZM74.4805 291.58C73.349 291.576 72.3754 291.297 71.5597 290.745C70.7483 290.192 70.1234 289.392 69.6848 288.344C69.2506 287.295 69.0357 286.035 69.0401 284.561C69.0401 283.092 69.2572 281.84 69.6914 280.805C70.13 279.77 70.7549 278.982 71.5663 278.443C72.382 277.899 73.3534 277.627 74.4805 277.627C75.6076 277.627 76.5768 277.899 77.3882 278.443C78.2039 278.987 78.8311 279.776 79.2696 280.811C79.7082 281.842 79.9253 283.092 79.9209 284.561C79.9209 286.039 79.7016 287.302 79.2631 288.35C78.8289 289.398 78.2061 290.199 77.3948 290.751C76.5834 291.304 75.612 291.58 74.4805 291.58ZM74.4805 289.219C75.2524 289.219 75.8686 288.83 76.3291 288.054C76.7895 287.278 77.0176 286.114 77.0132 284.561C77.0132 283.539 76.908 282.688 76.6975 282.009C76.4913 281.329 76.1975 280.818 75.8159 280.476C75.4388 280.134 74.9936 279.963 74.4805 279.963C73.713 279.963 73.099 280.346 72.6385 281.114C72.178 281.881 71.9456 283.03 71.9412 284.561C71.9412 285.596 72.0443 286.46 72.2504 287.153C72.4609 287.841 72.757 288.359 73.1385 288.705C73.5201 289.048 73.9674 289.219 74.4805 289.219ZM89.3265 288.758V288.048C89.3265 287.508 89.4405 287.013 89.6685 286.561C89.901 286.105 90.2365 285.741 90.675 285.469C91.118 285.193 91.6574 285.054 92.2933 285.054C92.938 285.054 93.4797 285.19 93.9182 285.462C94.3612 285.734 94.6945 286.098 94.9181 286.554C95.1462 287.006 95.2602 287.504 95.2602 288.048V288.758C95.2602 289.297 95.1462 289.795 94.9181 290.251C94.6901 290.703 94.3546 291.065 93.9116 291.337C93.4687 291.613 92.9293 291.751 92.2933 291.751C91.6486 291.751 91.107 291.613 90.6685 291.337C90.2299 291.065 89.8966 290.703 89.6685 290.251C89.4405 289.795 89.3265 289.297 89.3265 288.758ZM91.2408 288.048V288.758C91.2408 289.069 91.3153 289.363 91.4645 289.64C91.6179 289.916 91.8942 290.054 92.2933 290.054C92.6924 290.054 92.9643 289.918 93.1091 289.646C93.2582 289.374 93.3327 289.078 93.3327 288.758V288.048C93.3327 287.727 93.2626 287.429 93.1222 287.153C92.9819 286.877 92.7056 286.738 92.2933 286.738C91.8986 286.738 91.6245 286.877 91.471 287.153C91.3175 287.429 91.2408 287.727 91.2408 288.048ZM82.4125 281.048V280.338C82.4125 279.794 82.5287 279.296 82.7611 278.844C82.9936 278.388 83.3291 278.024 83.7677 277.752C84.2106 277.48 84.7456 277.344 85.3728 277.344C86.0219 277.344 86.5657 277.48 87.0043 277.752C87.4428 278.024 87.7761 278.388 88.0042 278.844C88.2322 279.296 88.3463 279.794 88.3463 280.338V281.048C88.3463 281.592 88.23 282.09 87.9976 282.541C87.7695 282.993 87.434 283.355 86.9911 283.627C86.5525 283.894 86.0131 284.028 85.3728 284.028C84.7325 284.028 84.1909 283.892 83.7479 283.62C83.3094 283.344 82.976 282.982 82.748 282.535C82.5243 282.083 82.4125 281.588 82.4125 281.048ZM84.34 280.338V281.048C84.34 281.368 84.4145 281.664 84.5636 281.936C84.7171 282.208 84.9869 282.344 85.3728 282.344C85.7763 282.344 86.0504 282.208 86.1951 281.936C86.3442 281.664 86.4188 281.368 86.4188 281.048V280.338C86.4188 280.017 86.3486 279.719 86.2083 279.443C86.0679 279.167 85.7894 279.029 85.3728 279.029C84.9825 279.029 84.7128 279.169 84.5636 279.45C84.4145 279.73 84.34 280.026 84.34 280.338ZM83.2808 291.284L92.5433 277.811H94.2669L85.0044 291.284H83.2808Z" fill="white"/>
<path d="M69.4058 111.087V124.56H66.5573V113.791H66.4784L63.3931 115.725V113.199L66.7284 111.087H69.4058ZM77.8904 124.856C76.7589 124.851 75.7853 124.573 74.9695 124.02C74.1582 123.468 73.5332 122.667 73.0947 121.619C72.6605 120.571 72.4456 119.31 72.45 117.836C72.45 116.367 72.6671 115.115 73.1013 114.08C73.5398 113.045 74.1648 112.258 74.9761 111.718C75.7918 111.175 76.7633 110.903 77.8904 110.903C79.0175 110.903 79.9867 111.175 80.7981 111.718C81.6138 112.262 82.2409 113.052 82.6795 114.087C83.1181 115.117 83.3352 116.367 83.3308 117.836C83.3308 119.314 83.1115 120.577 82.6729 121.626C82.2387 122.674 81.616 123.474 80.8046 124.027C79.9933 124.579 79.0219 124.856 77.8904 124.856ZM77.8904 122.494C78.6622 122.494 79.2784 122.106 79.7389 121.33C80.1994 120.553 80.4275 119.389 80.4231 117.836C80.4231 116.815 80.3178 115.964 80.1073 115.284C79.9012 114.604 79.6074 114.093 79.2258 113.751C78.8486 113.409 78.4035 113.238 77.8904 113.238C77.1229 113.238 76.5089 113.622 76.0484 114.389C75.5879 115.157 75.3555 116.306 75.3511 117.836C75.3511 118.871 75.4542 119.735 75.6603 120.428C75.8708 121.117 76.1668 121.634 76.5484 121.981C76.9299 122.323 77.3773 122.494 77.8904 122.494ZM92.7363 122.033V121.323C92.7363 120.784 92.8503 120.288 93.0784 119.836C93.3108 119.38 93.6463 119.016 94.0849 118.744C94.5279 118.468 95.0673 118.33 95.7032 118.33C96.3479 118.33 96.8895 118.466 97.3281 118.738C97.771 119.01 98.1043 119.374 98.328 119.83C98.5561 120.281 98.6701 120.779 98.6701 121.323V122.033C98.6701 122.573 98.5561 123.071 98.328 123.527C98.1 123.978 97.7645 124.34 97.3215 124.612C96.8786 124.888 96.3391 125.027 95.7032 125.027C95.0585 125.027 94.5169 124.888 94.0783 124.612C93.6398 124.34 93.3065 123.978 93.0784 123.527C92.8503 123.071 92.7363 122.573 92.7363 122.033ZM94.6507 121.323V122.033C94.6507 122.345 94.7252 122.639 94.8743 122.915C95.0278 123.191 95.3041 123.329 95.7032 123.329C96.1023 123.329 96.3742 123.193 96.5189 122.922C96.668 122.65 96.7426 122.354 96.7426 122.033V121.323C96.7426 121.003 96.6724 120.705 96.5321 120.428C96.3918 120.152 96.1155 120.014 95.7032 120.014C95.3085 120.014 95.0344 120.152 94.8809 120.428C94.7274 120.705 94.6507 121.003 94.6507 121.323ZM85.8224 114.323V113.613C85.8224 113.069 85.9386 112.571 86.171 112.12C86.4035 111.664 86.739 111.3 87.1775 111.028C87.6205 110.756 88.1555 110.62 88.7827 110.62C89.4317 110.62 89.9756 110.756 90.4141 111.028C90.8527 111.3 91.186 111.664 91.414 112.12C91.6421 112.571 91.7561 113.069 91.7561 113.613V114.323C91.7561 114.867 91.6399 115.365 91.4075 115.817C91.1794 116.269 90.8439 116.63 90.401 116.902C89.9624 117.17 89.423 117.304 88.7827 117.304C88.1424 117.304 87.6007 117.168 87.1578 116.896C86.7192 116.619 86.3859 116.258 86.1579 115.81C85.9342 115.358 85.8224 114.863 85.8224 114.323ZM87.7498 113.613V114.323C87.7498 114.644 87.8244 114.94 87.9735 115.212C88.127 115.483 88.3967 115.619 88.7827 115.619C89.1861 115.619 89.4602 115.483 89.605 115.212C89.7541 114.94 89.8286 114.644 89.8286 114.323V113.613C89.8286 113.293 89.7585 112.995 89.6181 112.718C89.4778 112.442 89.1993 112.304 88.7827 112.304C88.3923 112.304 88.1226 112.444 87.9735 112.725C87.8244 113.006 87.7498 113.302 87.7498 113.613ZM86.6907 124.56L95.9532 111.087H97.6767L88.4143 124.56H86.6907Z" fill="white"/>
<path d="M126.757 71.9479C125.828 71.9479 124.999 71.7768 124.271 71.4347C123.547 71.0927 122.973 70.6212 122.547 70.0204C122.122 69.4195 121.9 68.731 121.883 67.9547H124.646C124.676 68.4766 124.896 68.8998 125.304 69.2244C125.711 69.5489 126.196 69.7112 126.757 69.7112C127.205 69.7112 127.599 69.6125 127.942 69.4152C128.288 69.2134 128.558 68.9349 128.751 68.5797C128.948 68.2201 129.047 67.8078 129.047 67.3429C129.047 66.8693 128.946 66.4527 128.744 66.093C128.547 65.7334 128.273 65.4527 127.922 65.251C127.571 65.0493 127.17 64.9462 126.718 64.9418C126.323 64.9418 125.94 65.0229 125.567 65.1852C125.198 65.3475 124.911 65.569 124.705 65.8496L122.172 65.3957L122.81 58.291H131.047V60.6198H125.159L124.81 63.9945H124.889C125.126 63.6612 125.483 63.3849 125.961 63.1656C126.439 62.9463 126.975 62.8367 127.567 62.8367C128.378 62.8367 129.102 63.0275 129.737 63.409C130.373 63.7906 130.876 64.3147 131.244 64.9813C131.612 65.6435 131.794 66.4066 131.79 67.2706C131.794 68.1784 131.584 68.9854 131.158 69.6915C130.737 70.3932 130.148 70.9457 129.389 71.3492C128.634 71.7483 127.757 71.9479 126.757 71.9479ZM141.151 69.2375V68.5271C141.151 67.9876 141.265 67.4921 141.493 67.0403C141.726 66.5842 142.061 66.2202 142.5 65.9483C142.943 65.672 143.482 65.5339 144.118 65.5339C144.763 65.5339 145.304 65.6698 145.743 65.9417C146.186 66.2136 146.519 66.5777 146.743 67.0338C146.971 67.4855 147.085 67.9832 147.085 68.5271V69.2375C147.085 69.777 146.971 70.2747 146.743 70.7309C146.515 71.1826 146.179 71.5444 145.736 71.8163C145.293 72.0926 144.754 72.2307 144.118 72.2307C143.473 72.2307 142.932 72.0926 142.493 71.8163C142.055 71.5444 141.721 71.1826 141.493 70.7309C141.265 70.2747 141.151 69.777 141.151 69.2375ZM143.065 68.5271V69.2375C143.065 69.5489 143.14 69.8428 143.289 70.1191C143.443 70.3954 143.719 70.5335 144.118 70.5335C144.517 70.5335 144.789 70.3975 144.934 70.1256C145.083 69.8537 145.157 69.5577 145.157 69.2375V68.5271C145.157 68.2069 145.087 67.9087 144.947 67.6324C144.807 67.3561 144.53 67.218 144.118 67.218C143.723 67.218 143.449 67.3561 143.296 67.6324C143.142 67.9087 143.065 68.2069 143.065 68.5271ZM134.237 61.5276V60.8171C134.237 60.2733 134.353 59.7755 134.586 59.3238C134.818 58.8677 135.154 58.5037 135.592 58.2318C136.035 57.9599 136.57 57.8239 137.197 57.8239C137.847 57.8239 138.39 57.9599 138.829 58.2318C139.267 58.5037 139.601 58.8677 139.829 59.3238C140.057 59.7755 140.171 60.2733 140.171 60.8171V61.5276C140.171 62.0714 140.055 62.5692 139.822 63.0209C139.594 63.4726 139.259 63.8344 138.816 64.1063C138.377 64.3739 137.838 64.5076 137.197 64.5076C136.557 64.5076 136.016 64.3717 135.573 64.0998C135.134 63.8235 134.801 63.4617 134.573 63.0143C134.349 62.5626 134.237 62.067 134.237 61.5276ZM136.165 60.8171V61.5276C136.165 61.8477 136.239 62.1438 136.388 62.4157C136.542 62.6876 136.812 62.8235 137.197 62.8235C137.601 62.8235 137.875 62.6876 138.02 62.4157C138.169 62.1438 138.243 61.8477 138.243 61.5276V60.8171C138.243 60.497 138.173 60.1987 138.033 59.9224C137.893 59.6461 137.614 59.508 137.197 59.508C136.807 59.508 136.537 59.6483 136.388 59.929C136.239 60.2097 136.165 60.5057 136.165 60.8171ZM135.106 71.7637L144.368 58.291H146.092L136.829 71.7637H135.106Z" fill="white"/>
<path d="M140.427 10.0431C160.671 3.46535 181.825 0.11499 203.111 0.11499V101.539C192.468 101.539 181.891 103.214 171.769 106.503L140.427 10.0431Z" fill="#9966FF"/>
<path d="M173.07 54.349C172.14 54.349 171.311 54.178 170.583 53.8359C169.86 53.4938 169.285 53.0223 168.86 52.4215C168.434 51.8207 168.213 51.1321 168.195 50.3559H170.958C170.989 50.8778 171.208 51.301 171.616 51.6255C172.024 51.95 172.508 52.1123 173.07 52.1123C173.517 52.1123 173.912 52.0136 174.254 51.8163C174.6 51.6145 174.87 51.3361 175.063 50.9808C175.26 50.6212 175.359 50.2089 175.359 49.7441C175.359 49.2704 175.258 48.8538 175.056 48.4942C174.859 48.1345 174.585 47.8539 174.234 47.6521C173.883 47.4504 173.482 47.3473 173.03 47.3429C172.636 47.3429 172.252 47.4241 171.879 47.5863C171.511 47.7486 171.223 47.9701 171.017 48.2508L168.485 47.7968L169.123 40.6921H177.359V43.0209H171.471L171.123 46.3956H171.202C171.438 46.0623 171.796 45.786 172.274 45.5667C172.752 45.3475 173.287 45.2378 173.879 45.2378C174.69 45.2378 175.414 45.4286 176.05 45.8101C176.686 46.1917 177.188 46.7158 177.556 47.3824C177.925 48.0446 178.107 48.8077 178.102 49.6717C178.107 50.5795 177.896 51.3865 177.471 52.0926C177.05 52.7943 176.46 53.3469 175.701 53.7504C174.947 54.1494 174.07 54.349 173.07 54.349ZM187.463 51.6387V50.9282C187.463 50.3888 187.577 49.8932 187.806 49.4415C188.038 48.9854 188.373 48.6213 188.812 48.3494C189.255 48.0731 189.794 47.935 190.43 47.935C191.075 47.935 191.617 48.0709 192.055 48.3429C192.498 48.6148 192.831 48.9788 193.055 49.4349C193.283 49.8866 193.397 50.3844 193.397 50.9282V51.6387C193.397 52.1781 193.283 52.6759 193.055 53.132C192.827 53.5837 192.492 53.9455 192.049 54.2174C191.606 54.4937 191.066 54.6319 190.43 54.6319C189.786 54.6319 189.244 54.4937 188.805 54.2174C188.367 53.9455 188.034 53.5837 187.806 53.132C187.577 52.6759 187.463 52.1781 187.463 51.6387ZM189.378 50.9282V51.6387C189.378 51.95 189.452 52.2439 189.601 52.5202C189.755 52.7965 190.031 52.9346 190.43 52.9346C190.829 52.9346 191.101 52.7987 191.246 52.5268C191.395 52.2548 191.47 51.9588 191.47 51.6387V50.9282C191.47 50.608 191.4 50.3098 191.259 50.0335C191.119 49.7572 190.843 49.6191 190.43 49.6191C190.036 49.6191 189.762 49.7572 189.608 50.0335C189.455 50.3098 189.378 50.608 189.378 50.9282ZM180.55 43.9287V43.2182C180.55 42.6744 180.666 42.1766 180.898 41.7249C181.131 41.2688 181.466 40.9048 181.905 40.6329C182.348 40.361 182.883 40.225 183.51 40.225C184.159 40.225 184.703 40.361 185.141 40.6329C185.58 40.9048 185.913 41.2688 186.141 41.7249C186.369 42.1766 186.483 42.6744 186.483 43.2182V43.9287C186.483 44.4725 186.367 44.9703 186.135 45.422C185.907 45.8737 185.571 46.2356 185.128 46.5075C184.69 46.775 184.15 46.9088 183.51 46.9088C182.87 46.9088 182.328 46.7728 181.885 46.5009C181.446 46.2246 181.113 45.8628 180.885 45.4154C180.661 44.9637 180.55 44.4681 180.55 43.9287ZM182.477 43.2182V43.9287C182.477 44.2489 182.552 44.5449 182.701 44.8168C182.854 45.0887 183.124 45.2247 183.51 45.2247C183.913 45.2247 184.187 45.0887 184.332 44.8168C184.481 44.5449 184.556 44.2489 184.556 43.9287V43.2182C184.556 42.8981 184.486 42.5999 184.345 42.3236C184.205 42.0473 183.926 41.9091 183.51 41.9091C183.119 41.9091 182.85 42.0495 182.701 42.3301C182.552 42.6108 182.477 42.9069 182.477 43.2182ZM181.418 54.1648L190.68 40.6921H192.404L183.141 54.1648H181.418Z" fill="white"/>
</svg>
