<svg width="41" height="40" viewBox="0 0 41 40" fill="none" xmlns="http://www.w3.org/2000/svg">
<path opacity="0.4" d="M35.5677 11.9834L20.501 20.7L5.43437 11.9834C6.10104 10.75 7.06771 9.66671 8.15104 9.06671L17.051 4.13337C18.951 3.06671 22.051 3.06671 23.951 4.13337L32.851 9.06671C33.9344 9.66671 34.901 10.75 35.5677 11.9834Z" fill="white"/>
<path opacity="0.6" d="M20.501 20.6999V36.6666C19.251 36.6666 18.001 36.3999 17.051 35.8666L8.15104 30.9333C6.13438 29.8166 4.48438 27.0166 4.48438 24.7166V15.2833C4.48438 14.2166 4.85104 13.0499 5.43437 11.9833L20.501 20.6999Z" fill="white"/>
<path d="M36.5177 15.2833V24.7166C36.5177 27.0166 34.8677 29.8166 32.851 30.9333L23.951 35.8666C23.001 36.3999 21.751 36.6666 20.501 36.6666V20.6999L35.5677 11.9833C36.151 13.0499 36.5177 14.2166 36.5177 15.2833Z" fill="white"/>
</svg>
