<svg width="40" height="40" viewBox="0 0 40 40" fill="none" xmlns="http://www.w3.org/2000/svg">
<path opacity="0.4" d="M18.2667 3.51668L9.09999 6.95001C7.34999 7.61668 5.91666 9.68334 5.91666 11.5667V25.0667C5.91666 26.4167 6.79999 28.2 7.88332 29L17.05 35.85C18.6667 37.0667 21.3167 37.0667 22.9333 35.85L32.1 29C33.1833 28.1833 34.0667 26.4167 34.0667 25.0667V11.5667C34.0667 9.70001 32.6333 7.61668 30.8833 6.96668L21.7167 3.53335C20.7833 3.16668 19.2167 3.16668 18.2667 3.51668Z" fill="white"/>
<path d="M24.1667 17.5C24.1667 15.2 22.3 13.3334 20 13.3334C17.7 13.3334 15.8333 15.2 15.8333 17.5C15.8333 19.3667 17.0667 20.9167 18.75 21.45V25.8334C18.75 26.5167 19.3167 27.0834 20 27.0834C20.6833 27.0834 21.25 26.5167 21.25 25.8334V21.45C22.9333 20.9167 24.1667 19.3667 24.1667 17.5Z" fill="white"/>
</svg>
