<svg width="40" height="40" viewBox="0 0 40 40" fill="none" xmlns="http://www.w3.org/2000/svg">
<path opacity="0.4" d="M6.95002 25.5L14.5 33.05C17.6 36.15 22.6334 36.15 25.75 33.05L33.0667 25.7333C36.1667 22.6333 36.1667 17.6 33.0667 14.4833L25.5 6.94996C23.9167 5.36663 21.7334 4.51663 19.5 4.63329L11.1667 5.03329C7.83336 5.18329 5.18336 7.83329 5.01669 11.15L4.61669 19.4833C4.51669 21.7333 5.36669 23.9166 6.95002 25.5Z" fill="white"/>
<path d="M15.8333 20.6333C18.4843 20.6333 20.6333 18.4843 20.6333 15.8333C20.6333 13.1824 18.4843 11.0333 15.8333 11.0333C13.1824 11.0333 11.0333 13.1824 11.0333 15.8333C11.0333 18.4843 13.1824 20.6333 15.8333 20.6333Z" fill="white"/>
<path d="M21.6666 29.5833C21.3499 29.5833 21.0333 29.4666 20.7833 29.2166C20.2999 28.7333 20.2999 27.9333 20.7833 27.4499L27.4499 20.7833C27.9333 20.2999 28.7333 20.2999 29.2166 20.7833C29.6999 21.2666 29.6999 22.0666 29.2166 22.5499L22.5499 29.2166C22.2999 29.4666 21.9833 29.5833 21.6666 29.5833Z" fill="white"/>
</svg>
